<svg width="25" height="26" viewBox="0 0 25 26" fill="none" xmlns="http://www.w3.org/2000/svg">
    <path fill-rule="evenodd" clip-rule="evenodd" d="M2.56357 13.1175C2.56357 7.79985 6.81335 3.00787 12.6782 3.00787C18.4119 3.00787 22.7525 7.70886 22.7525 13.0872C22.7525 19.3249 17.6649 23.1968 12.6581 23.1968C11.0026 23.1968 9.16536 22.752 7.69157 21.8826C7.17675 21.5692 6.74269 21.3367 6.18749 21.5186L4.1484 22.1252C3.63358 22.287 3.16924 21.8826 3.32065 21.3367L3.99699 19.0721C4.10802 18.7587 4.08784 18.4251 3.92632 18.1622C3.0582 16.5649 2.56357 14.8159 2.56357 13.1175ZM11.3458 13.1175C11.3458 13.8353 11.9212 14.4116 12.6379 14.4217C13.3546 14.4217 13.93 13.8353 13.93 13.1276C13.93 12.4098 13.3546 11.8336 12.6379 11.8336C11.9313 11.8235 11.3458 12.4098 11.3458 13.1175ZM15.9993 13.1276C15.9993 13.8353 16.5747 14.4217 17.2914 14.4217C18.0081 14.4217 18.5835 13.8353 18.5835 13.1276C18.5835 12.4098 18.0081 11.8336 17.2914 11.8336C16.5747 11.8336 15.9993 12.4098 15.9993 13.1276ZM7.98431 14.4217C7.2777 14.4217 6.69222 13.8353 6.69222 13.1276C6.69222 12.4099 7.2676 11.8336 7.98431 11.8336C8.70102 11.8336 9.2764 12.4099 9.2764 13.1276C9.2764 13.8353 8.70102 14.4116 7.98431 14.4217Z" fill="white"/>
</svg>
