<svg xmlns="http://www.w3.org/2000/svg" version="1.1" xmlns:xlink="http://www.w3.org/1999/xlink" width="512" height="512" x="0" y="0" viewBox="0 0 511.999 511.999" style="enable-background:new 0 0 512 512" xml:space="preserve" class=""><g><path d="M492.45.822c-.242.077-.498-.029-.738.06l-480 180c-5.259 1.978-8.979 6.738-9.624 12.334s1.89 11.074 6.577 14.194l105.233 70.146 38.498 160.86c.101.423.361.76.496 1.166 3.46 10.553 16.749 13.903 24.699 5.953l75.306-75.306 115.768 77.181c8.388 5.625 19.952 1.426 22.749-8.364l120-420c3.222-11.304-7.389-21.94-18.964-18.224zM188.885 305.936c-2.484 2.516-3.232 4.555-4.103 7.727-.011.059-.037.114-.048.172l-16.738 60.861-23.848-99.653 232.325-159.302-187.588 190.195zM100.605 411.325c-5.859-5.859-15.352-5.86-21.211 0l-75 75c-5.859 5.859-5.859 15.352 0 21.211 5.86 5.86 15.351 5.86 21.211 0l75-75c5.859-5.859 5.859-15.352 0-21.211z" fill="#000000" opacity="1" data-original="#000000"></path><path d="M100.605 321.325c-5.859-5.859-15.352-5.86-21.211 0l-75 75c-5.859 5.859-5.859 15.352 0 21.211 5.86 5.86 15.351 5.86 21.211 0l75-75c5.859-5.859 5.859-15.352 0-21.211z" fill="#000000" opacity="1" data-original="#000000"></path></g></svg>