<svg xmlns="http://www.w3.org/2000/svg" version="1.1" xmlns:xlink="http://www.w3.org/1999/xlink" width="512" height="512" x="0" y="0" viewBox="0 0 512 512" style="enable-background:new 0 0 512 512" xml:space="preserve" class=""><g><path d="M434.191 77.809C386.594 30.212 323.312 4 256 4S125.406 30.212 77.809 77.809 4 188.688 4 256s26.212 130.594 73.809 178.191S188.688 508 256 508s130.594-26.212 178.191-73.809S508 323.312 508 256s-26.212-130.594-73.809-178.191zM483.685 244h-94.081c-1.367-50.571-11.364-98.316-28.677-137.37 16.244-5.854 31.589-13.093 45.715-21.621 44.596 39.337 73.75 95.794 77.043 158.991zM350.084 85.016c-12.802-22.601-27.802-39.967-44.23-51.511 29.346 6.571 56.569 18.815 80.462 35.517-11.349 6.217-23.489 11.561-36.232 15.994zM244 42.197v57.994c-20.088-.789-39.712-3.554-58.381-8.159C202.475 64.14 222.7 46.919 244 42.197zm24 0c21.3 4.722 41.525 21.944 58.381 49.835-18.669 4.604-38.293 7.369-58.381 8.159zM161.916 85.016c-12.743-4.433-24.883-9.777-36.231-15.994 23.893-16.703 51.116-28.946 80.462-35.518-16.429 11.545-31.429 28.911-44.231 51.512zM244 124.21V244h-97.591c1.375-48.367 11.049-93.692 27.737-130.157 22.248 5.962 45.773 9.487 69.854 10.367zM244 268v119.79c-24.081.88-47.606 4.406-69.854 10.367-16.688-36.465-26.362-81.79-27.737-130.157zm0 201.803c-21.3-4.722-41.525-21.944-58.38-49.835 18.668-4.604 38.292-7.369 58.38-8.158zm24 0V411.81c20.088.789 39.712 3.554 58.381 8.159C309.525 447.86 289.3 465.082 268 469.803zm-106.083-42.819c12.802 22.601 27.802 39.967 44.23 51.511-29.346-6.571-56.569-18.815-80.462-35.517 11.348-6.216 23.489-11.561 36.232-15.994zm188.167.001c12.742 4.433 24.882 9.777 36.231 15.993-23.893 16.702-51.116 28.946-80.461 35.517 16.428-11.544 31.428-28.91 44.23-51.51zM268 387.79V268h97.592c-1.375 48.367-11.05 93.692-27.737 130.157-22.249-5.961-45.774-9.486-69.855-10.367zM268 244V124.21c24.081-.88 47.606-4.406 69.855-10.367 16.687 36.465 26.362 81.79 27.737 130.157zM105.36 85.009c14.126 8.529 29.47 15.767 45.715 21.621-17.314 39.054-27.31 86.799-28.677 137.37H28.315c3.293-63.197 32.447-119.654 77.045-158.991zM28.315 268h94.082c1.367 50.571 11.364 98.316 28.677 137.37-16.245 5.854-31.589 13.093-45.715 21.621C60.762 387.654 31.608 331.197 28.315 268zM406.64 426.991c-14.126-8.528-29.47-15.767-45.714-21.621 17.314-39.054 27.31-86.799 28.678-137.37h94.081c-3.293 63.197-32.447 119.655-77.045 158.991z" fill="#000000" opacity="0.45098039215686275" data-original="#000000" class=""></path></g></svg>