<svg width="38" height="37" viewBox="0 0 38 37" fill="none" xmlns="http://www.w3.org/2000/svg">
    <path d="M15.9809 27.3983C15.9809 29.0709 17.3367 30.4267 19.0093 30.4267C20.6818 30.4267 22.0376 29.0709 22.0376 27.3983V21.3417H28.0943C29.7668 21.3417 31.1226 19.9858 31.1226 18.3133C31.1226 16.6408 29.7668 15.285 28.0943 15.285H22.0376V9.22827C22.0376 7.55576 20.6818 6.19992 19.0093 6.19992C17.3367 6.19992 15.9809 7.55576 15.9809 9.22827V15.285L9.92422 15.285C8.25171 15.285 6.89587 16.6408 6.89587 18.3133C6.89587 19.9858 8.25171 21.3416 9.92422 21.3416L15.9809 21.3417V27.3983Z" fill="#093D89"/>
</svg>
