<svg width="25" height="25" viewBox="0 0 25 25" fill="none" xmlns="http://www.w3.org/2000/svg">
<path fill-rule="evenodd" clip-rule="evenodd" d="M21.4218 10.8515V18.668C21.4218 20.8955 19.631 22.7012 17.4218 22.7012H7.42184C5.21271 22.7012 3.42184 20.8955 3.42184 18.668V10.8515C3.42184 9.64054 3.96149 8.49367 4.89171 7.7277L9.8917 3.61052C11.3641 2.39806 13.4795 2.39806 14.952 3.61052L19.952 7.72769C20.8822 8.49367 21.4218 9.64054 21.4218 10.8515ZM15.6718 17.9512V20.2012C15.6718 20.7535 15.2241 21.2012 14.6718 21.2012H10.1718C9.61956 21.2012 9.17184 20.7535 9.17184 20.2012V17.9512C9.17184 16.1562 10.6269 14.7012 12.4218 14.7012C14.2168 14.7012 15.6718 16.1562 15.6718 17.9512Z" fill="white"/>
</svg>
