<svg width="26" height="25" viewBox="0 0 26 25" fill="none" xmlns="http://www.w3.org/2000/svg">
<path fill-rule="evenodd" clip-rule="evenodd" d="M10.8942 3.61615H12.0478C15.3138 3.61615 18.0514 5.92511 18.7798 9.03118C18.904 9.56087 18.9698 10.1137 18.9698 10.6823C18.9698 14.5848 15.8707 17.7484 12.0478 17.7484H7.8271H5.12591C3.85162 17.7484 2.8186 16.6939 2.8186 15.3931V11.86C2.8186 7.30704 6.43417 3.61615 10.8942 3.61615ZM12.3363 19.7673H8.93398C10.1824 21.0162 11.8923 21.7862 13.7783 21.7862H17.9991H20.7003C21.9746 21.7862 23.0076 20.7317 23.0076 19.4308V15.8978C23.0076 13.8054 22.244 11.8951 20.9857 10.4414C20.9877 10.5214 20.9887 10.6017 20.9887 10.6823C20.9887 15.6998 17.1149 19.7673 12.3363 19.7673Z" fill="white"/>
</svg>
