<svg xmlns="http://www.w3.org/2000/svg" version="1.1" xmlns:xlink="http://www.w3.org/1999/xlink" width="512" height="512" x="0" y="0" viewBox="0 0 32 32" style="enable-background:new 0 0 512 512" xml:space="preserve" class=""><g><path d="m30.962 29.726-1.355-4.756a11.476 11.476 0 0 0-6.272-16.3 11.494 11.494 0 1 0-20.942 9.3l-1.355 4.756A1 1 0 0 0 2 24a1.023 1.023 0 0 0 .274-.038l4.757-1.356a11.038 11.038 0 0 0 1.632.713A11.564 11.564 0 0 0 19.5 31a11.417 11.417 0 0 0 5.47-1.394l4.756 1.356A1.023 1.023 0 0 0 30 31a1 1 0 0 0 .962-1.274Zm-23.8-9.2a.99.99 0 0 0-.274.038l-3.432.978.978-3.432a1 1 0 0 0-.1-.786 9.5 9.5 0 1 1 17.259-7.585A9.509 9.509 0 0 1 12.5 22a9.338 9.338 0 0 1-2.766-.419 9.145 9.145 0 0 1-2.064-.912 1 1 0 0 0-.51-.139ZM27.57 25.11l.978 3.432-3.432-.978a1 1 0 0 0-.787.1A9.419 9.419 0 0 1 19.5 29a9.563 9.563 0 0 1-8.407-5.095A11.2 11.2 0 0 0 12.5 24a11.45 11.45 0 0 0 11.406-12.915 9.478 9.478 0 0 1 3.765 13.243 1 1 0 0 0-.103.786Z" data-name="Layer 3" fill="#ffffff" opacity="1" data-original="#000000" class=""></path></g></svg>