<svg xmlns="http://www.w3.org/2000/svg" version="1.1" xmlns:xlink="http://www.w3.org/1999/xlink" width="512" height="512" x="0" y="0" viewBox="0 0 32 32" style="enable-background:new 0 0 512 512" xml:space="preserve" class=""><g><path d="M24 12.5a11.56 11.56 0 0 0-.493-3.341A11.5 11.5 0 1 0 2.393 17.97l-1.355 4.756A1 1 0 0 0 2 24a1.023 1.023 0 0 0 .274-.038l4.757-1.356a10.994 10.994 0 0 0 2.124.889A11.3 11.3 0 0 0 12.5 24 11.513 11.513 0 0 0 24 12.5Z" fill="#ffffff" opacity="1" data-original="#000000" class=""></path><path d="m30.962 29.726-1.355-4.756a11.481 11.481 0 0 0-3.88-15.139A13.471 13.471 0 0 1 12.5 26a13.331 13.331 0 0 1-2.653-.275A11.581 11.581 0 0 0 19.5 31a11.43 11.43 0 0 0 5.47-1.393l4.756 1.355A1.023 1.023 0 0 0 30 31a1 1 0 0 0 .962-1.274Z" fill="#ffffff" opacity="1" data-original="#000000" class=""></path></g></svg>