<svg width="25" height="25" viewBox="0 0 25 25" fill="none" xmlns="http://www.w3.org/2000/svg">
<path fill-rule="evenodd" clip-rule="evenodd" d="M6.95225 18.7581H18.6158C20.4615 18.7581 21.515 16.9016 20.4076 15.6007C19.9174 15.0248 19.6152 14.3417 19.5339 13.6253L19.3683 12.1661C19.1952 12.1862 19.0191 12.1964 18.8407 12.1964C16.3319 12.1964 14.2981 10.1627 14.2981 7.65393C14.2981 6.67389 14.6085 5.76633 15.1363 5.02419C15.1161 5.01704 15.0958 5.00999 15.0754 5.00302V4.89833C15.0754 3.63283 14.0495 2.60693 12.784 2.60693C11.5185 2.60693 10.4926 3.63283 10.4926 4.89833V5.00302C8.32999 5.74348 6.72894 7.5034 6.48553 9.64803L6.03412 13.6253C5.95282 14.3417 5.6507 15.0248 5.16045 15.6007C4.05306 16.9016 5.1066 18.7581 6.95225 18.7581ZM21.869 7.65394C21.869 9.32645 20.5132 10.6823 18.8407 10.6823C17.1682 10.6823 15.8123 9.32645 15.8123 7.65394C15.8123 5.98143 17.1682 4.62559 18.8407 4.62559C20.5132 4.62559 21.869 5.98143 21.869 7.65394ZM12.784 22.7959C14.1533 22.7959 15.3225 21.9875 15.7842 20.8492C15.8034 20.8017 15.8123 20.7507 15.8123 20.6995C15.8123 20.4634 15.6209 20.272 15.3848 20.272H10.1831C9.94703 20.272 9.75563 20.4634 9.75563 20.6995C9.75563 20.7507 9.76454 20.8017 9.7838 20.8492C10.2455 21.9875 11.4146 22.7959 12.784 22.7959Z" fill="white"/>
</svg>
